<svg width="336" height="198" viewBox="0 0 336 198" fill="none" xmlns="http://www.w3.org/2000/svg">
<path d="M143.96 92.3899C140.44 80.9699 146.36 71.1199 157.02 62.3899C164.619 56.0294 170.131 47.5319 172.84 37.9999C177.7 21.6499 169.31 9.58988 152.17 8.19988C148.85 7.92988 143.91 8.87988 144.24 3.85988C144.62 -1.73012 149.57 0.289883 152.97 0.649883C170.52 2.46988 182.13 13.9899 181.97 29.6499C181.84 40.8099 176.45 49.9999 170.18 58.7099C165.515 64.9881 160.146 70.7119 154.18 75.7699C153.218 76.5238 152.453 77.5001 151.951 78.6149C151.45 79.7297 151.226 80.9496 151.3 82.1699C151.46 91.8299 151.49 101.5 151.3 111.17C151.24 114.17 152.3 115.55 154.9 116.83C184.673 131.497 214.403 146.237 244.09 161.05C246.54 162.27 249.72 163.6 247.73 167.35C245.74 171.1 243.11 169.16 240.54 167.88C212.95 154 185.17 140.58 157.84 126.25C150.38 122.34 144.84 122.32 137.45 126.25C118.3 136.52 98.61 145.77 79.16 155.48C70.85 159.63 62.6 163.92 54.32 168.13C51.85 169.37 49.21 170.63 47.5 167.22C45.79 163.81 48.61 162.31 50.9 161.15C62.45 155.31 74.09 149.64 85.68 143.89C104.27 134.68 122.83 125.42 141.44 116.26C142.285 115.943 142.997 115.349 143.462 114.576C143.927 113.802 144.116 112.895 144 112C143.84 106.35 143.96 100.69 143.96 92.3899Z" fill="#030303"/>
<path d="M280.98 169.52H14.35C6.70085 169.52 0.5 175.719 0.5 183.365C0.5 191.011 6.70085 197.21 14.35 197.21H280.98C288.629 197.21 294.83 191.011 294.83 183.365C294.83 175.719 288.629 169.52 280.98 169.52Z" fill="#27372C" stroke="#324337" stroke-miterlimit="10"/>
<path d="M176.28 169.52H14.35C6.70085 169.52 0.5 175.719 0.5 183.365C0.5 191.011 6.70085 197.21 14.35 197.21H176.28C183.929 197.21 190.13 191.011 190.13 183.365C190.13 175.719 183.929 169.52 176.28 169.52Z" fill="#50B848"/>
<path d="M175.4 178.23H175.39C172.551 178.23 170.25 180.531 170.25 183.37V183.38C170.25 186.219 172.551 188.52 175.39 188.52H175.4C178.239 188.52 180.54 186.219 180.54 183.38V183.37C180.54 180.531 178.239 178.23 175.4 178.23Z" fill="#FFFEFE"/>
<path d="M331.72 91.2599H258.14C256.119 91.2599 254.48 92.8985 254.48 94.9199C254.48 96.9412 256.119 98.5799 258.14 98.5799H331.72C333.741 98.5799 335.38 96.9412 335.38 94.9199C335.38 92.8985 333.741 91.2599 331.72 91.2599Z" fill="#158D45"/>
<path d="M304.23 75.0399H258.14C256.119 75.0399 254.48 76.6785 254.48 78.6999C254.48 80.7212 256.119 82.3599 258.14 82.3599H304.23C306.251 82.3599 307.89 80.7212 307.89 78.6999C307.89 76.6785 306.251 75.0399 304.23 75.0399Z" fill="#156935"/>
<path d="M291.17 108.47H258.14C256.119 108.47 254.48 110.109 254.48 112.13C254.48 114.151 256.119 115.79 258.14 115.79H291.17C293.191 115.79 294.83 114.151 294.83 112.13C294.83 110.109 293.191 108.47 291.17 108.47Z" fill="#144722"/>
</svg>
