<svg xmlns="http://www.w3.org/2000/svg" viewBox="0 0 367.33 457.16"><defs><style>.cls-1{fill:#e9e9e7;}.cls-2{fill:#27372c;stroke:#324337;stroke-miterlimit:10;}.cls-3{fill:#50b848;}.cls-4{fill:#fffefe;}.cls-5{fill:#158d45;}.cls-6{fill:#156935;}.cls-7{fill:#144722;}.cls-8{fill:#fff;}.cls-9{fill:#51b848;}.cls-10{fill:#8d938b;}</style></defs><title>DARZI</title><g id="Layer_2" data-name="Layer 2"><g id="Layer_1-2" data-name="Layer 1"><path class="cls-1" d="M178.12,92.39c-3.52-11.42,2.4-21.27,13.06-30A49.43,49.43,0,0,0,207,38c4.86-16.35-3.53-28.41-20.67-29.8-3.32-.27-8.26.68-7.93-4.34.38-5.59,5.33-3.57,8.73-3.21,17.55,1.82,29.16,13.34,29,29C216,40.81,210.61,50,204.34,58.71a102.56,102.56,0,0,1-16,17.06,7.55,7.55,0,0,0-2.88,6.4c.16,9.66.19,19.33,0,29-.06,3,1,4.38,3.6,5.66q44.66,22,89.19,44.22c2.45,1.22,5.63,2.55,3.64,6.3s-4.62,1.81-7.19.53C247.11,154,219.33,140.58,192,126.25c-7.46-3.91-13-3.93-20.39,0-19.15,10.27-38.84,19.52-58.29,29.23-8.31,4.15-16.56,8.44-24.84,12.65-2.47,1.24-5.11,2.5-6.82-.91s1.11-4.91,3.4-6.07c11.55-5.84,23.19-11.51,34.78-17.26,18.59-9.21,37.15-18.47,55.76-27.63a4,4,0,0,0,2.56-4.26C178,106.35,178.12,100.69,178.12,92.39Z" transform="translate(-2.21)"/><rect class="cls-2" x="32.45" y="169.52" width="294.33" height="27.69" rx="13.85"/><rect class="cls-3" x="32.45" y="169.52" width="189.63" height="27.69" rx="13.85"/><rect class="cls-4" x="202.2" y="178.23" width="10.29" height="10.29" rx="5.14"/><rect class="cls-5" x="286.43" y="91.26" width="80.9" height="7.32" rx="3.66"/><rect class="cls-6" x="286.43" y="75.04" width="53.41" height="7.32" rx="3.66"/><rect class="cls-7" x="286.43" y="108.47" width="40.35" height="7.32" rx="3.66"/><path class="cls-8" d="M44.2,355.68H61.72c12.87,0,21.27,8.47,21.27,21.53,0,12.89-8.16,22.64-21.67,22.64H44.2Zm9.56,36.46h7.16c8.47,0,12.21-6.3,12.21-14.9,0-7.22-3.5-13.84-12.16-13.84H53.76Z" transform="translate(-2.21)"/><path class="cls-8" d="M115.74,391.29a74.86,74.86,0,0,0,.45,8.56h-8.77a13.05,13.05,0,0,1-.46-3.24c-1.21,1.87-3.46,4-9.33,4-8,0-11.37-5.25-11.37-10.4,0-7.55,6.07-11,15.79-11h4.74v-2c0-2.36-.85-4.68-5.11-4.68-3.88,0-4.72,1.65-5.15,4H87.8c.5-5.9,4.14-10.66,14.23-10.61,8.88.06,13.71,3.53,13.71,11.42Zm-8.95-6.53h-3.74c-5.53,0-7.58,1.69-7.58,4.88,0,2.4,1.47,4.43,4.77,4.43,5.84,0,6.55-4.06,6.55-8.44Z" transform="translate(-2.21)"/><path class="cls-8" d="M122.65,375.69c0-3.3,0-6.23-.07-9h9c.12.74.24,4,.24,5.82,1.46-3.79,5-6.56,10.64-6.59v8.76c-6.66-.17-10.64,1.62-10.64,10.72v14.45h-9.18Z" transform="translate(-2.21)"/><path class="cls-8" d="M144.85,393l16.41-19H145.65v-7.24h26v7.14l-16.1,18.78h17.26l-1.11,7.24H144.85Z" transform="translate(-2.21)"/><path class="cls-8" d="M176.73,353.08h9.18v8.19h-9.18Zm0,13.61h9.18v33.16h-9.18Z" transform="translate(-2.21)"/><path class="cls-9" d="M199.51,355.68H229l-1.6,7.4H206.77l-2.3,11.28h19.3l-1.6,7.35h-19.3l-3.81,18.14h-8.92Z" transform="translate(-2.21)"/><path class="cls-9" d="M224.06,399.85l9.88-46.77h8.71l-9.88,46.77Z" transform="translate(-2.21)"/><path class="cls-9" d="M273.11,380.28c0,7.8-4.55,20.22-18.61,20.22-9.23,0-13.48-5.63-13.48-13.71,0-8.92,5.67-20.74,18.33-20.74C267.3,366.05,273.11,370.54,273.11,380.28Zm-23,6.56c0,4.61,1.94,6.88,5.32,6.88,6.24,0,8.71-8.66,8.71-14.31,0-4.3-1.8-6.58-5.43-6.58C252.64,372.83,250.08,381.43,250.08,386.84Z" transform="translate(-2.21)"/><path class="cls-9" d="M286,366.69c.21,11.07.28,20.52.11,24.45h.12c1.56-3.82,3.28-7.94,10.74-24.45h8.24c.14,16.68.05,21.1-.29,24.68H305c1.37-3.38,4-10.25,10.73-24.68h9L308,399.85h-9.36c-.34-11.1-.39-17.78-.17-22.28h-.06c-1.49,4.25-4.43,10.28-9.92,22.28h-9.39l-1.83-33.16Z" transform="translate(-2.21)"/><path class="cls-10" d="M2.21,439.87H8.79c3.38,0,5.68,1.88,5.68,5,0,3.39-2.47,5.14-5.81,5.14H4.75v6.89H2.21Zm2.54,8.07H8.48c2.22,0,3.4-1.05,3.4-3s-1.39-3-3.31-3H4.75Z" transform="translate(-2.21)"/><path class="cls-10" d="M21.69,449.54v7.38h-2.5V439.87H26c3.55,0,5.44,1.92,5.44,4.58a3.93,3.93,0,0,1-2.82,4c1.28.36,2.51,1.37,2.51,4.34v.76a12.1,12.1,0,0,0,.23,3.35H28.92a12,12,0,0,1-.3-3.7v-.34c0-2.32-.64-3.34-3.64-3.34Zm0-2.1h3.59c2.5,0,3.57-.94,3.57-2.76S27.73,442,25.51,442H21.69Z" transform="translate(-2.21)"/><path class="cls-10" d="M47.69,449.06H39.27v5.72h9.25l-.32,2.14H36.79V439.87h11.3V442H39.27v4.91h8.42Z" transform="translate(-2.21)"/><path class="cls-10" d="M66.91,452c-.75,2.95-2.95,5.14-6.9,5.14-5.16,0-7.72-3.86-7.72-8.69,0-4.64,2.58-8.83,7.83-8.83,4.12,0,6.3,2.36,6.79,5.21H64.38A4.14,4.14,0,0,0,60,441.7c-3.62,0-5.09,3.29-5.09,6.67s1.37,6.69,5.19,6.69A4.18,4.18,0,0,0,64.36,452Z" transform="translate(-2.21)"/><path class="cls-10" d="M74.31,439.87v17.05H71.78V439.87Z" transform="translate(-2.21)"/><path class="cls-10" d="M81.63,452.12c.45,2,1.82,3,4.19,3,2.53,0,3.55-1.15,3.55-2.7s-.84-2.54-4.16-3.34c-4.14-1-5.49-2.43-5.49-4.81,0-2.61,1.94-4.67,5.79-4.67,4.15,0,5.84,2.36,6.08,4.65H89c-.28-1.43-1.16-2.65-3.6-2.65-2,0-3.08.87-3.08,2.42s.92,2.12,3.86,2.83c4.88,1.18,5.78,3.07,5.78,5.3,0,2.82-2.09,5-6.33,5s-6.22-2.31-6.59-5Z" transform="translate(-2.21)"/><path class="cls-10" d="M99.35,439.87v17.05H96.82V439.87Z" transform="translate(-2.21)"/><path class="cls-10" d="M120.41,448.3c0,4.7-2.67,8.86-8.08,8.86-5.08,0-7.88-3.88-7.88-8.77s2.91-8.77,8.09-8.77C117.38,439.62,120.41,443.21,120.41,448.3Zm-13.32,0c0,3.62,1.81,6.71,5.35,6.71,3.83,0,5.33-3.16,5.33-6.69s-1.7-6.59-5.33-6.59S107.09,444.74,107.09,448.32Z" transform="translate(-2.21)"/><path class="cls-10" d="M125.51,456.92V439.87h3.29c2.39,3.95,7.45,12.14,8.37,14h0c-.17-2.11-.16-4.85-.16-7.64v-6.35h2.37v17.05h-3.1c-2.18-3.63-7.5-12.53-8.53-14.46h0c.12,1.86.13,4.87.13,7.94v6.52Z" transform="translate(-2.21)"/><path class="cls-10" d="M155.76,439.87v17.05h-2.53V439.87Z" transform="translate(-2.21)"/><path class="cls-10" d="M161.92,456.92V439.87h3.29c2.39,3.95,7.44,12.14,8.37,14h0c-.17-2.11-.15-4.85-.15-7.64v-6.35h2.36v17.05h-3.1c-2.17-3.63-7.5-12.53-8.52-14.46h0c.13,1.86.13,4.87.13,7.94v6.52Z" transform="translate(-2.21)"/><path class="cls-10" d="M189.63,439.87h6.59c3.37,0,5.68,1.88,5.68,5,0,3.39-2.47,5.14-5.81,5.14h-3.91v6.89h-2.55Zm2.55,8.07h3.73c2.22,0,3.39-1.05,3.39-3s-1.39-3-3.3-3h-3.82Z" transform="translate(-2.21)"/><path class="cls-10" d="M209.12,449.54v7.38h-2.5V439.87h6.82c3.54,0,5.44,1.92,5.44,4.58a3.93,3.93,0,0,1-2.83,4c1.29.36,2.51,1.37,2.51,4.34v.76a12.5,12.5,0,0,0,.23,3.35h-2.44a11.74,11.74,0,0,1-.3-3.7v-.34c0-2.32-.65-3.34-3.65-3.34Zm0-2.1h3.59c2.5,0,3.57-.94,3.57-2.76s-1.13-2.72-3.35-2.72h-3.81Z" transform="translate(-2.21)"/><path class="cls-10" d="M239.17,448.3c0,4.7-2.67,8.86-8.07,8.86-5.08,0-7.88-3.88-7.88-8.77s2.9-8.77,8.08-8.77C236.14,439.62,239.17,443.21,239.17,448.3Zm-13.31,0c0,3.62,1.8,6.71,5.35,6.71,3.83,0,5.32-3.16,5.32-6.69s-1.69-6.59-5.33-6.59S225.86,444.74,225.86,448.32Z" transform="translate(-2.21)"/><path class="cls-10" d="M244.28,439.87h6.22c4.82,0,8.07,3.26,8.07,8.34s-3.16,8.71-8.16,8.71h-6.13Zm2.53,14.93h3.42c3.87,0,5.7-2.79,5.7-6.55,0-3.25-1.67-6.26-5.69-6.26h-3.43Z" transform="translate(-2.21)"/><path class="cls-10" d="M266.14,439.87v10.24c0,3.88,2.11,4.95,4.22,4.95,2.47,0,4.19-1.17,4.19-4.95V439.87h2.54V450c0,5.59-3.13,7.16-6.78,7.16s-6.73-1.69-6.73-7V439.87Z" transform="translate(-2.21)"/><path class="cls-10" d="M296.65,452c-.74,2.95-2.94,5.14-6.89,5.14-5.16,0-7.73-3.86-7.73-8.69,0-4.64,2.59-8.83,7.83-8.83,4.12,0,6.31,2.36,6.8,5.21h-2.53a4.14,4.14,0,0,0-4.36-3.13c-3.63,0-5.1,3.29-5.1,6.67s1.38,6.69,5.2,6.69a4.19,4.19,0,0,0,4.24-3.06Z" transform="translate(-2.21)"/><path class="cls-10" d="M305.19,442h-5.45v-2.14h13.44V442h-5.45v14.91h-2.54Z" transform="translate(-2.21)"/><path class="cls-10" d="M319.74,439.87v17.05h-2.53V439.87Z" transform="translate(-2.21)"/><path class="cls-10" d="M340.81,448.3c0,4.7-2.68,8.86-8.08,8.86-5.08,0-7.88-3.88-7.88-8.77s2.9-8.77,8.09-8.77C337.77,439.62,340.81,443.21,340.81,448.3Zm-13.32,0c0,3.62,1.8,6.71,5.35,6.71,3.83,0,5.33-3.16,5.33-6.69s-1.7-6.59-5.34-6.59S327.49,444.74,327.49,448.32Z" transform="translate(-2.21)"/><path class="cls-10" d="M345.91,456.92V439.87h3.29c2.39,3.95,7.44,12.14,8.37,14h0c-.17-2.11-.15-4.85-.15-7.64v-6.35h2.36v17.05h-3.1c-2.17-3.63-7.5-12.53-8.52-14.46h0c.13,1.86.13,4.87.13,7.94v6.52Z" transform="translate(-2.21)"/></g></g></svg>